Coordinates
version=1
nRows=12
nColumns=34
inDegrees=yes

Units are S.I. units (second, meters, Newtons, ...)
If the header above contains a line with 'inDegrees', this indicates whether rotational values are in degrees (yes) or radians (no).

endheader
time	pelvis_tilt	pelvis_list	pelvis_rotation	pelvis_tx	pelvis_ty	pelvis_tz	hip_flexion_r	hip_adduction_r	hip_rotation_r	knee_angle_r	ankle_angle_r	subtalar_angle_r	mtp_angle_r	hip_flexion_l	hip_adduction_l	hip_rotation_l	knee_angle_l	ankle_angle_l	subtalar_angle_l	mtp_angle_l	lumbar_extension	lumbar_bending	lumbar_rotation	arm_flex_r	arm_add_r	arm_rot_r	elbow_flex_r	pro_sup_r	arm_flex_l	arm_add_l	arm_rot_l	elbow_flex_l	pro_sup_l
      2.05000000	    -18.70101078	      1.19311215	     -1.20772461	      0.95246197	      1.02373600	     -0.29024606	     51.96729940	     -8.04874634	      5.15714388	     59.54875048	     20.43515311	    -13.95218893	      0.00000000	     49.79883545	    -11.41178644	     -1.95381337	     55.50390794	     19.41833452	    -10.11412948	      0.00000000	    -10.70039994	      1.71527875	      4.85491741	    130.26359499	    -21.64526122	     37.38566774	     89.23895154	     92.91504305	    126.60055536	    -24.17734012	     33.42071605	     83.85088030	     92.12975253
      2.06666670	    -17.41983738	      0.93089021	     -1.29165176	      0.96745987	      1.06023276	     -0.29141621	     46.40319032	     -8.40663603	      3.56243939	     53.41846107	     17.32979523	    -13.29672466	      0.00000000	     43.90164675	    -11.22564235	     -2.70235109	     48.54556279	     15.55511807	    -10.26560519	      0.00000000	     -9.01145332	      2.03287393	      4.06528322	    130.84378668	    -24.67060097	     39.45425915	     90.06217399	     93.37628436	    127.52571570	    -27.24458088	     36.67475483	     85.27044814	     91.27556274
      2.08333330	    -16.05523556	      0.41864741	     -1.36833621	      0.98460768	      1.10074087	     -0.29127409	     40.06702258	     -8.56657873	      1.38877697	     45.93725679	     13.18086398	    -12.33316990	      0.00000000	     37.48497618	    -11.31670216	     -3.87323920	     40.55753258	     10.44881239	    -10.26273334	      0.00000000	     -7.38498701	      2.49443613	      3.35752481	    131.05372514	    -29.16408092	     42.11750623	     91.08331366	     93.55322229	    127.82918511	    -30.87585228	     40.59626524	     87.71882437	     90.34118781
      2.10000000	    -14.91764948	     -0.09474313	     -1.46103730	      1.00486316	      1.12790053	     -0.29305858	     33.91300299	     -8.66687718	     -1.17166445	     38.15710566	      8.60031859	    -10.57228132	      0.00000000	     31.17458765	    -11.51093071	     -5.68880825	     32.34975798	      4.97497799	     -9.39269983	      0.00000000	     -5.43467318	      2.92875403	      2.71003726	    132.93703787	    -34.91543036	     47.13129263	     90.27225375	     93.04368384	    129.41294700	    -35.01966357	     46.79257972	     88.81053127	     88.18323337
      2.11666670	    -13.34540068	     -0.93671660	     -1.54059618	      1.02599963	      1.17618243	     -0.28859148	     25.81396803	     -8.12897164	     -4.45263758	     27.59858805	      2.54062540	     -7.40656239	      0.00000000	     23.42744432	    -12.02282547	     -8.91913463	     22.12005948	     -2.21271109	     -7.30164622	      0.00000000	     -3.72183444	      3.69482637	      2.28293315	    132.49308872	    -42.31373419	     52.70902451	     93.56344501	     91.92465354	    127.01434414	    -41.54289837	     52.25199481	     94.48806482	     85.64887968
      2.13333330	    -12.38403942	     -1.47793052	     -1.29329001	      1.04341368	      1.22155857	     -0.28560752	     18.46563897	     -7.51338396	     -7.41711792	     16.73815378	     -4.39934167	     -2.36748199	      0.00000000	     17.00888058	    -12.01014631	    -13.01716823	     12.66227939	     -9.61340549	     -3.76176799	      0.00000000	     -1.26902326	      3.89120328	      1.63757491	    132.12796192	    -50.78923613	     61.60408702	     97.96862704	     89.99742280	    124.19166733	    -49.79366432	     59.76920730	    101.08267423	     83.04235307
      2.15000000	    -12.34085721	     -1.06338914	     -1.20795563	      1.05704593	      1.26830283	     -0.27869484	     13.81828567	     -7.55320340	     -9.42839903	      8.40589174	    -11.60559693	      1.87443098	      0.00000000	     13.12587684	    -11.00523235	    -15.74955769	      5.85179180	    -15.20471377	     -1.51477911	      0.00000000	      1.59537483	      2.87154464	      1.02170033	    131.26899937	    -60.10185425	     70.77637860	    104.19722803	     86.68742694	    121.14815825	    -59.00798482	     68.03951718	    108.97065102	     80.32531581
      2.16666670	    -12.49464815	     -0.49489621	     -0.98609140	      1.06401011	      1.32075639	     -0.27076105	     10.75302853	     -7.71619041	     -9.96422371	      2.70787931	    -16.16299312	      3.40795471	      0.00000000	     10.56803225	    -10.03171501	    -16.80669484	      1.47759686	    -17.80473311	     -0.46800454	      0.00000000	      4.37314735	      1.73564193	      0.53958082	    126.16774391	    -69.31580441	     75.58092619	    110.70835373	     86.10051429	    113.33751784	    -67.93253162	     73.46258461	    114.85039720	     80.23934533
      2.18333330	    -12.43391577	     -0.46579308	     -1.17083502	      1.07003913	      1.35107739	     -0.27054058	      9.28413163	     -7.49366242	    -10.54501730	      0.29353577	    -18.47043098	      3.20435895	      0.00000000	      8.85665846	     -9.89644394	    -18.29321804	      0.00000000	    -20.33832254	     -0.66105197	      0.00000000	      5.73033051	      1.43776108	     -0.54698644	    122.64680166	    -78.12685539	     79.69373349	    114.62637869	     85.83221236	    106.41495031	    -77.27006903	     78.14634207	    119.28360887	     80.25107629
      2.20000000	    -12.03352098	     -0.32099805	     -1.39714415	      1.07801598	      1.39421534	     -0.26649508	      8.37542117	     -7.37813661	    -10.75466784	      0.00000000	    -19.95290640	      3.31243464	      0.00000000	      7.24326744	     -9.77320333	    -19.43263803	      0.00000000	    -23.02613061	     -0.51158699	      0.00000000	      5.55765950	      0.98764163	     -1.46351435	    118.39977675	    -86.46453994	     83.76453180	    116.91403006	     85.54686952	     98.53428241	    -85.15624601	     82.84220224	    122.03341501	     79.98814739
      2.21666670	    -11.32653716	     -0.42344653	     -1.44294808	      1.07659372	      1.42155291	     -0.26535415	      7.14345936	     -7.09706235	    -11.24388671	      0.00000000	    -23.68017301	      3.32627554	      0.00000000	      5.86268593	     -9.73301017	    -20.06652400	      0.95731723	    -24.53224369	     -1.22206013	      0.00000000	      5.97554494	      1.67114981	      1.31886527	    102.24770628	    -96.51291392	     76.33855347	    117.35653460	     75.19636487	     31.26289454	    -77.10656188	     22.40364458	    117.31903377	     59.95632923
      2.23333330	    -10.50749621	     -0.68117549	     -1.25611258	      1.08052167	      1.45059193	     -0.26089019	      5.65992174	     -6.52168630	    -11.58451917	      0.00000000	    -28.34126871	      2.88962833	      0.00000000	      5.02730461	     -9.98744571	    -20.10405644	      2.75739624	    -25.87272550	     -0.95511182	      0.00000000	      5.52460034	      2.23090983	      4.38026874	    100.98273869	   -106.30450727	     82.54013070	    115.70231192	     75.54684687	     24.96697816	    -70.78040191	     23.37529114	    110.83083316	     60.85546601
